HIERARCHY
ROOT SpineBase
{
  OFFSET 0.000000 0.000000 0.000000
  CHANNELS 6 Xposition Yposition Zposition Zrotation Xrotation Yrotation
  JOINT SpineMid
  {
    OFFSET -0.000000 26.270029 0.000000
    CHANNELS 3 Zrotation Xrotation Yrotation
    JOINT SpineShoulder
    {
      OFFSET 0.023451 19.489481 -0.744734
      CHANNELS 3 Zrotation Xrotation Yrotation
      JOINT Neck
      {
        OFFSET -0.004180 6.432198 -0.570048
        CHANNELS 3 Zrotation Xrotation Yrotation
        JOINT Head
        {
          OFFSET 2.809865 11.993635 -0.650022
          CHANNELS 3 Zrotation Xrotation Yrotation
          End Site
          {
            OFFSET 0 0 0
          }
        }
      }
      JOINT ShoulderLeft
      {
        OFFSET -13.865429 -2.529912 -9.217466
        CHANNELS 3 Zrotation Xrotation Yrotation
        JOINT ElbowLeft
        {
          OFFSET -8.548328 -20.744630 -5.149506
          CHANNELS 3 Zrotation Xrotation Yrotation
          JOINT WristLeft
          {
            OFFSET 7.113631 -13.596551 -22.114470
            CHANNELS 3 Zrotation Xrotation Yrotation
            JOINT HandLeft
            {
              OFFSET 0.664319 -4.908483 -0.210740
              CHANNELS 3 Zrotation Xrotation Yrotation
              JOINT HandTipLeft
              {
                OFFSET 2.641790 -7.458786 0.838167
                CHANNELS 3 Zrotation Xrotation Yrotation
                End Site
                {
                  OFFSET 0 0 0
                }
              }
              JOINT ThumbLeft
              {
                OFFSET -1.032671 -3.291473 3.804646
                CHANNELS 3 Zrotation Xrotation Yrotation
                End Site
                {
                  OFFSET 0 0 0
                }
              }
            }
          }
        }
      }
      JOINT ShoulderRight
      {
        OFFSET 13.744341 -5.403446 5.119809
        CHANNELS 3 Zrotation Xrotation Yrotation
        JOINT ElbowRight
        {
          OFFSET 5.521976 -21.813352 10.602844
          CHANNELS 3 Zrotation Xrotation Yrotation
          JOINT WristRight
          {
            OFFSET 19.770408 -5.592582 -16.963694
            CHANNELS 3 Zrotation Xrotation Yrotation
            JOINT HandRight
            {
              OFFSET 3.196428 -0.377348 -2.750082
              CHANNELS 3 Zrotation Xrotation Yrotation
              JOINT HandTipRight
              {
                OFFSET 5.344783 -3.829954 -6.212992
                CHANNELS 3 Zrotation Xrotation Yrotation
                End Site
                {
                  OFFSET 0 0 0
                }
              }
              JOINT ThumbRight
              {
                OFFSET -1.835880 -4.641333 -2.861396
                CHANNELS 3 Zrotation Xrotation Yrotation
                End Site
                {
                  OFFSET 0 0 0
                }
              }
            }
          }
        }
      }
    }
  }
  JOINT HipLeft
  {
    OFFSET -5.984455 0.714818 -6.312133
    CHANNELS 3 Zrotation Xrotation Yrotation
    JOINT KneeLeft
    {
      OFFSET 15.798109 -6.037819 -27.815846
      CHANNELS 3 Zrotation Xrotation Yrotation
      JOINT AnkleLeft
      {
        OFFSET -0.282007 -35.787097 5.070132
        CHANNELS 3 Zrotation Xrotation Yrotation
        JOINT FootLeft
        {
          OFFSET 3.777309 -7.464788 -2.723069
          CHANNELS 3 Zrotation Xrotation Yrotation
          End Site
          {
            OFFSET 0 0 0
          }
        }
      }
    }
  }
  JOINT HipRight
  {
    OFFSET 5.836834 -0.160245 -0.479034
    CHANNELS 3 Zrotation Xrotation Yrotation
    JOINT KneeRight
    {
      OFFSET 25.923022 -5.753825 -21.512604
      CHANNELS 3 Zrotation Xrotation Yrotation
      JOINT AnkleRight
      {
        OFFSET -5.513970 -36.300284 4.523228
        CHANNELS 3 Zrotation Xrotation Yrotation
        JOINT FootRight
        {
          OFFSET 4.909139 -6.180068 -10.730683
          CHANNELS 3 Zrotation Xrotation Yrotation
          End Site
          {
            OFFSET 0 0 0
          }
        }
      }
    }
  }
}
MOTION
Frames: 8
Frame Time: 0.033333
5.500858 50.852034 388.084897 0.000000 0.000000 -26.263582 -0.000000 0.000000 26.263582 -0.000000 0.000000 0.000000 -0.000000 0.000000 0.000000 0.000000 0.000000 0.000000 -0.000000 0.000000 0.000000 -0.000000 0.000000 0.000000 -0.000000 0.000000 0.000000 -0.000000 0.000000 0.000000 0.000000 0.000000 0.000000 0.000000 0.000000 0.000000 -0.000000 0.000000 0.000000 -0.000000 0.000000 0.000000 -0.000000 0.000000 0.000000 -0.000000 0.000000 0.000000 0.000000 0.000000 0.000000 0.000000 0.000000 0.000000 -0.000000 0.000000 26.263582 -0.000000 0.000000 0.000000 -0.000000 0.000000 0.000000 0.000000 0.000000 0.000000 -0.000000 0.000000 26.263582 -0.000000 0.000000 0.000000 -0.000000 0.000000 0.000000 0.000000 0.000000 0.000000
5.483864 50.846706 387.993512 -0.021213 0.089965 -26.660792 0.059326 -0.070881 26.660846 -0.000000 0.000000 0.000000 -0.000000 0.000000 0.000000 0.000000 0.000000 0.000000 -0.000000 0.000000 0.000000 -0.000000 0.000000 0.000000 -0.550271 -2.727223 -0.359248 1.066933 4.183719 0.875525 0.000000 0.000000 0.000000 0.000000 0.000000 0.000000 -0.000000 0.000000 0.000000 -1.747557 -1.296526 0.765374 13.712229 9.922973 -5.996248 -8.894832 -6.773172 3.356483 0.000000 0.000000 0.000000 0.000000 0.000000 0.000000 0.059326 -0.070881 26.660846 -0.000000 0.000000 0.000000 0.669954 5.788008 2.597030 0.000000 0.000000 0.000000 0.059326 -0.070881 26.660846 -0.000000 0.000000 0.000000 -1.746803 0.486585 3.442490 0.000000 0.000000 0.000000
5.466544 50.841692 387.920269 -0.042639 0.154004 -26.960263 0.107826 -0.117935 26.960431 -0.000000 0.000000 0.000000 -0.000000 0.000000 0.000000 0.000000 0.000000 0.000000 -0.000000 0.000000 0.000000 -0.000000 0.000000 0.000000 -0.925642 -4.653129 -0.629752 1.770977 7.115057 1.432627 0.000000 0.000000 0.000000 0.000000 0.000000 0.000000 -0.000000 0.000000 0.000000 -2.925324 -2.183059 1.292431 24.554897 16.008636 -11.798252 -14.932839 -11.302326 5.045158 0.000000 0.000000 0.000000 0.000000 0.000000 0.000000 0.107826 -0.117935 26.960431 -0.000000 0.000000 0.000000 0.989946 10.965508 4.912947 0.000000 0.000000 0.000000 0.107826 -0.117935 26.960431 -0.000000 0.000000 0.000000 -3.591511 0.353250 6.652531 0.000000 0.000000 0.000000
5.448898 50.836990 387.865169 -0.064280 0.192151 -27.161056 0.144908 -0.141619 27.161342 -0.000000 0.000000 0.000000 -0.000000 0.000000 0.000000 0.000000 0.000000 0.000000 -0.000000 0.000000 0.000000 -0.000000 0.000000 0.000000 -1.102878 -5.728026 -0.786409 2.140128 8.771065 1.735056 0.000000 0.000000 0.000000 0.000000 0.000000 0.000000 -0.000000 0.000000 0.000000 -3.585394 -2.677352 1.623238 31.252182 18.994102 -15.651477 -17.879719 -13.078726 5.797161 0.000000 0.000000 0.000000 0.000000 0.000000 0.000000 0.144908 -0.141619 27.161342 -0.000000 0.000000 0.000000 1.033329 15.494299 6.983412 0.000000 0.000000 0.000000 0.144908 -0.141619 27.161342 -0.000000 0.000000 0.000000 -5.496268 -0.445912 9.583865 0.000000 0.000000 0.000000
5.430927 50.832602 387.828210 -0.086139 0.204434 -27.262408 0.170216 -0.142267 27.262773 -0.000000 0.000000 0.000000 -0.000000 0.000000 0.000000 0.000000 0.000000 0.000000 -0.000000 0.000000 0.000000 0.037526 -0.753924 -0.460084 -1.060891 -5.173109 -0.337383 2.186315 9.135979 1.817454 0.000000 0.000000 0.000000 0.000000 0.000000 0.000000 -0.000000 0.000000 0.000000 -3.758162 -2.791035 1.781514 33.589562 19.930480 -16.908459 -18.071000 -12.423490 6.083112 0.000000 0.000000 0.000000 0.000000 0.000000 0.000000 0.306880 0.458087 26.684530 -0.391725 -0.475034 0.576243 0.863987 19.391704 8.840971 0.000000 0.000000 0.000000 0.170216 -0.142267 27.262773 -0.000000 0.000000 0.000000 -7.433221 -1.962430 12.187085 0.000000 0.000000 0.000000
5.412631 50.828526 387.809393 -0.108219 0.190872 -27.263719 0.183633 -0.120093 27.264092 -0.000000 0.000000 0.000000 0.208055 0.766996 -0.169945 0.000000 0.000000 0.000000 -0.000000 0.000000 0.000000 -0.031652 -0.915182 -0.433288 -0.744397 -4.290120 -0.261309 1.911225 8.194664 1.687652 0.000000 0.000000 0.000000 0.000000 0.000000 0.000000 -0.000000 0.000000 0.000000 -3.453420 -2.527097 1.774802 31.649994 19.245000 -15.474416 -15.734339 -9.621290 5.964366 0.000000 0.000000 0.000000 0.000000 0.000000 0.000000 0.341981 0.589734 26.600087 -0.459437 -0.563783 0.661095 0.534207 22.706182 10.513653 0.000000 0.000000 0.000000 0.183633 -0.120093 27.264092 -0.000000 0.000000 0.000000 -9.386846 -4.257619 14.404660 0.000000 0.000000 0.000000
5.392576 50.830010 387.844455 -0.139896 0.107610 -27.015779 0.173511 -0.032322 27.015959 -0.000000 0.000000 0.000000 0.281081 0.816534 -0.178241 0.000000 0.000000 0.000000 -0.839514 -0.378417 0.360769 0.582802 -0.858504 -0.608515 0.391039 -1.491829 -0.136351 0.915893 4.245756 0.969535 0.000000 0.000000 0.000000 0.000000 0.000000 0.000000 -0.000000 0.000000 0.000000 -1.758592 -1.165285 1.308529 18.908391 12.663469 -9.312013 -6.254439 -1.236295 4.983369 0.000000 0.000000 0.000000 0.000000 0.000000 0.000000 0.352000 0.834806 26.305427 -0.544311 -0.698218 0.705965 0.208370 25.160025 11.800648 0.000000 0.000000 0.000000 0.173511 -0.032322 27.015959 -0.000000 0.000000 0.000000 -12.377801 -8.505725 17.552594 0.000000 0.000000 0.000000
5.342242 50.831334 387.819816 -0.198130 0.069660 -26.973765 0.208173 0.027786 26.973835 -0.000000 0.000000 0.000000 0.196287 1.011146 -0.228191 0.000000 0.000000 0.000000 -0.935091 -0.464501 0.418756 0.568514 -0.854924 -0.531980 1.277080 3.428598 0.308000 -0.930950 -2.107305 -0.262885 0.000000 0.000000 0.000000 0.000000 0.000000 0.000000 -0.000000 0.000000 0.000000 0.554377 0.649030 0.589487 1.067810 0.658506 -1.097089 6.434665 9.551614 1.539088 0.000000 0.000000 0.000000 0.000000 0.000000 0.000000 0.419238 0.965566 26.119519 -0.602404 -0.749069 0.848548 -0.214343 26.541078 12.670035 0.000000 0.000000 0.000000 0.208173 0.027786 26.973835 -0.000000 0.000000 0.000000 -16.273405 -16.072366 20.491913 0.000000 0.000000 0.000000
